<?xml version="1.0" encoding="UTF-8"?>
<svg id="Capa_1" data-name="Capa 1" xmlns="http://www.w3.org/2000/svg" viewBox="0 0 200.99 90.3">
  <defs>
    <style>
      .cls-1 {
        fill: none;
        stroke: #66103e;
        stroke-miterlimit: 10;
      }
    </style>
  </defs>
  <path class="cls-1" d="M198.36,53.53c-1.48-.15-2.87,1.27-3.34,3.28-1.07,2.45-2.84,8.24-7.11,17.03-2.11,4.33-3.12,7.6-4.57,9.14-1.44,1.54-2.84,2.31-4.2,2.31s-2.2-.57-2.52-1.7c-.32-1.14-.08-2.93.72-5.36l11.77-35.71c.96-3,1.5-5.89,1.62-8.65.12-2.76-.48-5.08-1.8-6.95-1.32-1.87-3.66-2.8-7.03-2.8s-6.31.79-9.07,2.38c-2.76,1.58-5.45,4.18-8.05,7.8-2.6,3.62-5.23,8.41-7.87,14.38-1.06,2.4-2.16,5.04-3.29,7.88l3.77-14.03c.56-2.11,1-4.24,1.32-6.4.32-2.15.32-4.14,0-5.97-.32-1.83-1.1-3.29-2.34-4.39-1.24-1.1-3.18-1.65-5.83-1.65-4.01,0-7.69,1.28-11.05,3.84-3.36,2.56-6.65,6.82-9.85,12.8-2.16,4.02-4.41,9-6.75,14.89l3.63-14.46c.48-1.87.88-3.78,1.2-5.73.32-1.95.36-3.8.12-5.54-.24-1.75-.96-3.15-2.16-4.21-1.2-1.05-3.04-1.58-5.53-1.58-1.76,0-3.59.37-5.47,1.1-1.88.73-3.66,1.99-5.35,3.78-1.68,1.79-3.12,4.35-4.32,7.68l-2.68,8.04h-.02l-1.68,5c-1.6,4.55-3.12,7.6-4.57,9.14-1.44,1.54-2.84,2.31-4.2,2.31s-2.2-.57-2.52-1.7c-.32-1.14-.08-2.93.72-5.36l11.77-35.71c.96-3,1.5-5.89,1.62-8.65.12-2.76-.48-5.08-1.8-6.95-1.32-1.87-3.66-2.8-7.03-2.8s-6.31.79-9.07,2.38c-2.76,1.58-5.45,4.18-8.05,7.8-2.6,3.62-5.23,8.41-7.87,14.38-1.06,2.4-2.16,5.04-3.29,7.88l3.77-14.03c.56-2.11,1-4.24,1.32-6.4.32-2.15.32-4.14,0-5.97-.32-1.83-1.1-3.29-2.34-4.39-1.24-1.1-3.18-1.65-5.83-1.65-4.01,0-7.69,1.28-11.05,3.84-3.36,2.56-6.65,6.82-9.85,12.8-2.16,4.02-4.41,9-6.75,14.89l3.63-14.46c.48-1.87.88-3.78,1.2-5.73.32-1.95.36-3.8.12-5.54-.24-1.75-.96-3.15-2.16-4.21-1.2-1.05-3.04-1.58-5.53-1.58-1.76,0-3.59.37-5.47,1.1-1.88.73-3.66,1.99-5.35,3.78-1.68,1.79-3.12,4.35-4.32,7.68l-7.02,16.99c-.72-1.31-1.92-2.39-3.08-2.23-1.69.24-2.71,2.72-2.37,5.2s2,3.94,3.69,3.7c1.38-.2,2.34-1.35,2.48-3.23,5.1-9.58,6.44-14.1,7.38-16.53.87-2.23,1.2-3.11,1.97-5.16.31-.83,1.02-2.26,2.23-3.67,0,0,2.29-2.62,4.57-2.62,1.12,0,1.8.43,2.04,1.28.24.85.3,1.83.18,2.92-.12,1.1-.34,2.05-.66,2.86l-14.41,52.4h12.61l2.45-9.78c1.86-6.6,3.9-12.78,6.14-18.5,2.44-6.26,4.94-11.74,7.51-16.45,2.56-4.71,5.08-8.37,7.57-10.97,2.48-2.6,4.76-3.9,6.85-3.9,1.36,0,2.22.45,2.58,1.34.36.89.44,2.03.24,3.41-.2,1.38-.54,2.88-1.02,4.51l-14.9,50.33h12.97l1.48-5.53-.04.29c2.56-8.29,5.17-15.76,7.81-22.42,2.64-6.66,5.26-12.39,7.87-17.18,2.6-4.79,5.11-8.45,7.51-10.97,2.4-2.52,4.69-3.78,6.85-3.78,1.52,0,2.28.96,2.28,2.86s-.36,4.04-1.08,6.4l-11.29,34.24c-.96,3.09-1.58,5.83-1.86,8.22-.28,2.4.1,4.37,1.14,5.91.72,1.14,1.72,2.03,3,2.68,1.28.65,3,.98,5.17.98,1.76,0,3.58-.35,5.47-1.04s3.66-1.93,5.35-3.72c1.68-1.79,3.08-4.39,4.2-7.8l2.67-7.92h.02l1.8-5.12c1.44-4.14,2.84-7.09,4.2-8.83,1.36-1.75,2.88-2.62,4.57-2.62,1.12,0,1.8.43,2.04,1.28.24.85.3,1.83.18,2.92-.12,1.1-.34,2.05-.66,2.86l-14.41,52.4h12.61l2.45-9.78c1.86-6.6,3.9-12.78,6.14-18.5,2.44-6.26,4.94-11.74,7.51-16.45,2.56-4.71,5.08-8.37,7.57-10.97,2.48-2.6,4.76-3.9,6.85-3.9,1.36,0,2.22.45,2.58,1.34.36.89.44,2.03.24,3.41-.2,1.38-.54,2.88-1.02,4.51l-14.9,50.33h12.97l1.48-5.53-.04.29c2.56-8.29,5.17-15.76,7.81-22.42,2.64-6.66,5.26-12.39,7.87-17.18,2.6-4.79,5.11-8.45,7.51-10.97,2.4-2.52,4.69-3.78,6.85-3.78,1.52,0,2.28.96,2.28,2.86s-.36,4.04-1.08,6.4l-11.29,34.24c-.96,3.09-1.58,5.83-1.86,8.22-.28,2.4.1,4.37,1.14,5.91.72,1.14,1.72,2.03,3,2.68,1.28.65,3,.98,5.17.98,1.76,0,3.58-.35,5.47-1.04s3.66-1.93,5.35-3.72c1.68-1.79,2.44-4.53,4.2-7.8l7.01-16.23c.43.51.98.84,1.59.9,1.68.17,3.24-1.68,3.49-4.13.25-2.46-.91-4.59-2.6-4.76Z"/>
</svg>