<svg id="Capa_1" data-name="Capa 1" xmlns="http://www.w3.org/2000/svg" viewBox="0 0 543.5 370.82"><defs><style>.cls-1{fill:#fac49a;}.cls-2{fill:#faf4b1;}</style></defs><path class="cls-1" d="M275.46,246.24c-95.92-.37-188.93-1-195.14-1.26-11.34-.54-18.47-7.9-19.08-19.7-.5-9.86.6-162.1.95-208.53A16.7,16.7,0,0,1,78.86.27L268.73.05l0,18.65-187.93.21c-.69,90.63-1.34,198-1,205.42a8,8,0,0,0,.28,1.91,7.29,7.29,0,0,0,1,.11c5.3.25,91.34.85,194.33,1.24Z"/><path class="cls-1" d="M261.18,246.26l-.06-18.65c110.22-.4,202.27-1,207.91-1.25a7,7,0,0,0,1.71-.22,6.26,6.26,0,0,0,.3-1.84c.41-7.37-.29-114.79-1-205.43l-201.66-.22,0-18.65L472,.22A16.7,16.7,0,0,1,488.65,16.7c.37,46.44,1.56,198.74,1,208.63-.64,11.79-8.05,19.14-19.81,19.66C463.27,245.28,363.81,245.89,261.18,246.26Z"/><path class="cls-1" d="M529.5,370.82h0L14,370.14A13.64,13.64,0,0,1,1.62,362a16.45,16.45,0,0,1,1.64-17L68.55,236.09l9.84,5.9L12.71,351.53l-.25.31A5,5,0,0,0,12,357c.29.62.95,1.65,2,1.65l515.49.68h0a2.45,2.45,0,0,0,2-1.53,5,5,0,0,0-.3-5.12l-.29-.4L475.6,239.48l10.3-5,54.89,112a16.55,16.55,0,0,1,.89,16.62A13.64,13.64,0,0,1,529.5,370.82Z"/><path class="cls-1" d="M355.2,354.36H215.3a8.59,8.59,0,0,1-7.62-12.53l11.14-21.55a8.53,8.53,0,0,1,7.62-4.64h0l119.1.77a8.59,8.59,0,0,1,7.74,5l9.66,20.8a8.59,8.59,0,0,1-7.78,12.2Zm-139.89-7.19H355.2a1.41,1.41,0,0,0,1.27-2l-9.65-20.79a1.41,1.41,0,0,0-1.28-.82l-119.1-.77a1.36,1.36,0,0,0-1.25.76l-11.13,21.56a1.38,1.38,0,0,0,0,1.38,1.39,1.39,0,0,0,1.21.67Z"/><path class="cls-2" d="M275.65,234.37c-93.48-.35-184-.91-190-1.18-9.29-.42-14.9-6.1-15.41-15.58-.49-9.14.59-151.4.93-194.78A12.77,12.77,0,0,1,84,10.38l185-.21V21.65l-185,.2a1.32,1.32,0,0,0-1.43,1.07c-.71,89.23-1.33,187.07-1,194.08.22,4.13,1.47,4.59,4.47,4.73,5.75.26,97.87.82,189.55,1.16Z"/><path class="cls-2" d="M261.71,234.38l0-11.47c98.07-.34,196.62-.91,202.77-1.17,3.93-.17,4.95-1.1,5.15-4.75.4-7-.26-104.86-1-194.11a1.3,1.3,0,0,0-1.43-1.07L268.72,21.6V10.13l198.43.2a12.77,12.77,0,0,1,12.89,12.45c.37,43.4,1.52,185.71,1,194.86-.32,5.57-2.84,15-16.12,15.56C458.55,233.48,361.68,234,261.71,234.38Z"/><path class="cls-1" d="M480.64,307.33h-.05L71.78,305.66a11.29,11.29,0,0,1-9.89-5.83,11.55,11.55,0,0,1,.17-11.62L81.5,256a11.47,11.47,0,0,1,9.77-5.54h0L464.57,250a11.43,11.43,0,0,1,10,6l.15.3,16,34.22a11.49,11.49,0,0,1-10.12,16.82ZM91.31,261.92,71.89,294.14l408.75,1.71-.21-.35-15.94-34Z"/><path d="M256.1,129.1l-11.92,20h-.68l-3.31-26.42a3,3,0,0,0-.93-2.14,2.7,2.7,0,0,0-1.38-.55l.16-.84,1.91.09c.72,0,1.47,0,2.25,0,.93,0,1.79,0,2.58,0l2-.09-.17.84a2.84,2.84,0,0,0-2,.76c-.39.45-.5,1.37-.33,2.77L246.61,144l-.38.17,9.5-16ZM269.67,126a12.47,12.47,0,0,0,1.36-3.7,1.6,1.6,0,0,0-.65-1.74,5.41,5.41,0,0,0-2.56-.53l.21-.84,1.62.07,1.64,0,1.53,0c.73,0,1.33,0,1.81,0l1.38-.09-.21.84a5.47,5.47,0,0,0-1.26.47,4.61,4.61,0,0,0-1.36,1.09,8.87,8.87,0,0,0-1.37,2.1l-12.56,25.45h-.67l-4.16-26.42a4,4,0,0,0-.77-2.12,1.76,1.76,0,0,0-1.12-.57l.17-.84,1.72.09c.65,0,1.32,0,2,0,1.09,0,2.11,0,3.07,0l2.31-.09-.17.84a4.74,4.74,0,0,0-2.86.72c-.45.42-.56,1.36-.33,2.81L261.52,143l-.29.08Z"/><path d="M273.58,139.39c1.56-.54,3-1.06,4.26-1.58a12.82,12.82,0,0,0,3-1.66,9,9,0,0,0,2.4-2.94,8.15,8.15,0,0,0,.88-3.78,4.35,4.35,0,0,0-.17-1.55.53.53,0,0,0-.5-.34,3.83,3.83,0,0,0-2.27.93,11.8,11.8,0,0,0-2.39,2.54,23.37,23.37,0,0,0-2.17,3.67,23.07,23.07,0,0,0-1.57,4.39,19,19,0,0,0-.59,4.64,4.79,4.79,0,0,0,.8,3.09,2.6,2.6,0,0,0,2.1.94,6.58,6.58,0,0,0,3.19-.92,10.17,10.17,0,0,0,3.28-3.28l.67.34a13,13,0,0,1-2.1,2.69,11.42,11.42,0,0,1-2.92,2.12,7.43,7.43,0,0,1-3.42.82,6.25,6.25,0,0,1-2.94-.67,4.58,4.58,0,0,1-1.94-2,7.24,7.24,0,0,1-.67-3.25,14.6,14.6,0,0,1,.67-4.06,23.63,23.63,0,0,1,1.91-4.49,21.71,21.71,0,0,1,3-4.14,14.18,14.18,0,0,1,3.82-3,9.28,9.28,0,0,1,4.49-1.14,3.5,3.5,0,0,1,2.21.7,2.45,2.45,0,0,1,.9,2.08,5.4,5.4,0,0,1-1,3.12,11,11,0,0,1-2.6,2.65,22,22,0,0,1-3.51,2.12c-1.26.62-2.49,1.15-3.69,1.6s-2.27.81-3.2,1.09Z"/><path d="M292.27,146.32c-.68.53-1.35,1.07-2,1.61l-2,1.66-.63-.29a7.75,7.75,0,0,0,.49-1.2,12.48,12.48,0,0,0,.31-1.24l7.35-26a2.67,2.67,0,0,0-.12-2.1c-.31-.45-1.15-.68-2.52-.68l.21-.88a18.63,18.63,0,0,0,4.07-.48,15.88,15.88,0,0,0,3.32-1.24Zm9.78-18.23a3.67,3.67,0,0,0-2.46,1.53,21.81,21.81,0,0,0-2.77,4.16,48.81,48.81,0,0,0-2.64,5.9,54.79,54.79,0,0,0-2.08,6.8l.71-4.53a63.49,63.49,0,0,1,3.51-8.84,16.43,16.43,0,0,1,3.4-4.85,5.3,5.3,0,0,1,3.55-1.52,3.88,3.88,0,0,1,3.17,1.47,7,7,0,0,1,1.2,4.46,18.5,18.5,0,0,1-.53,4.15,23.52,23.52,0,0,1-1.55,4.5,20.25,20.25,0,0,1-2.52,4.09,12.17,12.17,0,0,1-3.42,3,8.38,8.38,0,0,1-4.29,1.12,3.58,3.58,0,0,1-2.25-.76,3.76,3.76,0,0,1-1.32-2.18l.34-.84a5.08,5.08,0,0,0,1.36,2.18,2.82,2.82,0,0,0,1.83.63,4.17,4.17,0,0,0,2.73-1.11,11.41,11.41,0,0,0,2.39-3,23.86,23.86,0,0,0,1.91-4.1,28.69,28.69,0,0,0,1.26-4.49,21.23,21.23,0,0,0,.45-4.14,5.62,5.62,0,0,0-.53-2.75A1.61,1.61,0,0,0,302.05,128.09Z"/></svg>