<svg id="Capa_1" data-name="Capa 1" xmlns="http://www.w3.org/2000/svg" viewBox="0 0 401.75 306.68"><defs><style>.cls-1{fill:#66103e;}.cls-2{fill:#fac49a;}</style></defs><path class="cls-1" d="M389.5,306.68h0L13.4,306.23A12.28,12.28,0,0,1,1.16,294L0,31.53A21.06,21.06,0,0,1,2.26,22L10,6.72A12.17,12.17,0,0,1,20.92,0H122.19a12.33,12.33,0,0,1,11,6.9l7.14,14.7a2,2,0,0,0,1.82,1.14l247.33,0A12.26,12.26,0,0,1,401.75,35V294.43a12.26,12.26,0,0,1-12.25,12.25ZM20.92,10.22a2,2,0,0,0-1.81,1.11L11.38,26.61a10.85,10.85,0,0,0-1.16,4.88L11.39,294a2,2,0,0,0,2,2l376.08.44h0a2,2,0,0,0,2-2V35a2,2,0,0,0-2-2L142.17,33a12.32,12.32,0,0,1-11-6.89L124,11.36a2,2,0,0,0-1.82-1.14Z"/><rect class="cls-1" x="8.43" y="29.77" width="383.34" height="25.36"/><path class="cls-1" d="M392.42,55.77H7.79V29.13H392.42ZM9.07,54.49H391.14V30.41H9.07Z"/><path class="cls-2" d="M384,298.57h-366A10.19,10.19,0,0,1,7.77,288.4V60.87A10.18,10.18,0,0,1,17.94,50.7H384a10.18,10.18,0,0,1,10.17,10.17V288.4A10.19,10.19,0,0,1,384,298.57ZM17.94,59.65a1.23,1.23,0,0,0-1.23,1.22V288.4a1.23,1.23,0,0,0,1.23,1.22H384a1.22,1.22,0,0,0,1.22-1.22V60.87A1.22,1.22,0,0,0,384,59.65Z"/><polygon class="cls-1" points="5.13 29.77 134.76 29.22 122.41 5.41 16.19 6.92 5.13 29.77"/><path class="cls-1" d="M4.11,30.41,15.78,6.29h.4L122.8,4.77l13,25.08h-1ZM16.59,7.55,6.15,29.12l127.56-.54L122,6.05Z"/><path d="M133.89,160.79c2.65,0,4.64.49,5.94,1.47a4.65,4.65,0,0,1,1.95,3.9,6.32,6.32,0,0,1-1.26,3.85,11.15,11.15,0,0,1-3.23,2.89,18.35,18.35,0,0,1-4.12,1.87c2.58.42,4.37,1.26,5.38,2.5a6.72,6.72,0,0,1,1.51,4.35,7.07,7.07,0,0,1-1.09,3.93,9.1,9.1,0,0,1-2.9,2.75,14.57,14.57,0,0,1-4,1.64,19,19,0,0,1-4.5.54c-1.06,0-2.17,0-3.31-.06s-2.46-.06-3.91-.06c-.65,0-1.29,0-1.93,0l-1.79,0q-.81,0-1.41.06l.17-.84a9.71,9.71,0,0,0,2.23-.33,2.27,2.27,0,0,0,1.26-1,8.38,8.38,0,0,0,.84-2.27l5.54-20.83a12.22,12.22,0,0,0,.34-2A1.23,1.23,0,0,0,125,162a4.47,4.47,0,0,0-2.25-.4l.21-.84,1.39.07,1.74,0,1.87,0c1,0,2,0,2.92,0S132.85,160.79,133.89,160.79Zm-8,14.61.17-.71h3.28a8.14,8.14,0,0,0,4.41-1.16,7.92,7.92,0,0,0,2.85-3,8.34,8.34,0,0,0,1-4,5.37,5.37,0,0,0-1.07-3.68,4.42,4.42,0,0,0-3.46-1.2,4.48,4.48,0,0,0-2.61.57,4.33,4.33,0,0,0-1.21,2.42L123.6,186a8.77,8.77,0,0,0-.36,2,1.16,1.16,0,0,0,.52,1.11,4.14,4.14,0,0,0,2,.34,14.42,14.42,0,0,0,5.9-1,6.62,6.62,0,0,0,3.21-2.92,9.79,9.79,0,0,0,1-4.6,6.52,6.52,0,0,0-.63-3,4.32,4.32,0,0,0-1.95-1.92,7.73,7.73,0,0,0-3.43-.67Z"/><path d="M148.21,190.48h-3.66l5-18a4.57,4.57,0,0,0,.28-2,.79.79,0,0,0-.87-.59,2.16,2.16,0,0,0-1.68,1,12.83,12.83,0,0,0-1.59,3.32l-.55,1.56h-.8l1.05-3.07a7.67,7.67,0,0,1,1.5-2.69,4.88,4.88,0,0,1,1.8-1.28,5,5,0,0,1,1.79-.35,2.41,2.41,0,0,1,1.78.54,2.22,2.22,0,0,1,.59,1.43,7.52,7.52,0,0,1-.13,1.91c-.12.69-.27,1.35-.44,2ZM159,169.36a3.07,3.07,0,0,0-2,.9,12,12,0,0,0-2.11,2.6,35.23,35.23,0,0,0-2.14,4.08c-.71,1.58-1.41,3.33-2.1,5.27s-1.35,4-2,6.26l1.05-5.38q1.38-4.11,2.58-6.93a27.82,27.82,0,0,1,2.37-4.56,8.63,8.63,0,0,1,2.42-2.52,4.81,4.81,0,0,1,2.62-.77,2.41,2.41,0,0,1,1.83.67,2.35,2.35,0,0,1,.65,1.72,2.89,2.89,0,0,1-.42,1.53,3.11,3.11,0,0,1-1.07,1.09,2.68,2.68,0,0,1-1.45.4,1.78,1.78,0,0,1-1.19-.4,1.33,1.33,0,0,1-.49-1.11,2.86,2.86,0,0,1,.25-1.2,2.89,2.89,0,0,1,.68-.9,3.15,3.15,0,0,1,1-.59.62.62,0,0,0-.19-.12A.7.7,0,0,0,159,169.36Z"/><path d="M165.72,189.73a3.6,3.6,0,0,0,2.31-1.29,18.17,18.17,0,0,0,2.65-3.46,34.21,34.21,0,0,0,2.47-5,35.61,35.61,0,0,0,1.81-5.75l-.71,4.54a43.34,43.34,0,0,1-3.2,7.16,12.9,12.9,0,0,1-3.23,3.9,5.58,5.58,0,0,1-3.32,1.2,3.37,3.37,0,0,1-3-1.43,6.26,6.26,0,0,1-1-3.65,16.1,16.1,0,0,1,.68-4.39,25.53,25.53,0,0,1,1.87-4.73,24.28,24.28,0,0,1,2.75-4.28,14.24,14.24,0,0,1,3.38-3.11,6.81,6.81,0,0,1,3.71-1.17,2.45,2.45,0,0,1,2.25,1.44,6.36,6.36,0,0,1,.32,4.06l-.47.25a6.85,6.85,0,0,0-.29-3.59,2,2,0,0,0-1.93-1.37,3.55,3.55,0,0,0-2.29,1.07,12.79,12.79,0,0,0-2.31,2.9,28,28,0,0,0-2,4.1,29.77,29.77,0,0,0-1.42,4.68,21.88,21.88,0,0,0-.53,4.64,5.55,5.55,0,0,0,.4,2.52A1.2,1.2,0,0,0,165.72,189.73Zm10.58-20.84c.68,0,1.35-.08,2-.16a9.86,9.86,0,0,0,1.85-.42l-5.25,18.56c-.06.25-.13.58-.23,1a2.09,2.09,0,0,0,0,1.11c.1.34.38.5.86.5a2.22,2.22,0,0,0,1.64-.92,10.5,10.5,0,0,0,1.59-3.36l.51-1.55h.79L179,186.7a8.16,8.16,0,0,1-1.4,2.63,5.22,5.22,0,0,1-1.7,1.34,4.14,4.14,0,0,1-1.73.4,2.51,2.51,0,0,1-2.31-1.09,3.21,3.21,0,0,1-.29-2.25c.17-.85.36-1.71.59-2.58Z"/><path d="M187.27,190.48h-3.66l5-18a7.48,7.48,0,0,0,.28-1.11,2.1,2.1,0,0,0-.07-1c-.11-.29-.39-.44-.84-.44a2.08,2.08,0,0,0-1.64.9,13.26,13.26,0,0,0-1.59,3.38l-.55,1.56h-.8l1.05-3.07a6.44,6.44,0,0,1,2.29-3.48,5.16,5.16,0,0,1,2.71-.84,2.6,2.6,0,0,1,1.83.54,2.08,2.08,0,0,1,.63,1.41,7.42,7.42,0,0,1-.13,1.89c-.12.68-.27,1.36-.44,2Zm1.93-8.74a58.6,58.6,0,0,1,2.85-6.34,25,25,0,0,1,2.73-4.13,8.89,8.89,0,0,1,2.76-2.27,6.52,6.52,0,0,1,2.91-.69,3.26,3.26,0,0,1,2.71.94,3.42,3.42,0,0,1,.65,2.39,12,12,0,0,1-.58,3l-4.08,12.26a4.92,4.92,0,0,0-.31,1.87c0,.49.37.74,1,.74a2.17,2.17,0,0,0,1.58-.89,11,11,0,0,0,1.66-3.4l.54-1.55h.8l-1.05,3.06a7.12,7.12,0,0,1-1.45,2.69,4.77,4.77,0,0,1-1.8,1.28,5.13,5.13,0,0,1-1.83.36,3.55,3.55,0,0,1-1.66-.34,2.43,2.43,0,0,1-1-.88,3,3,0,0,1-.29-2,14.84,14.84,0,0,1,.67-2.69l4-12a9,9,0,0,0,.36-1.41,3,3,0,0,0-.06-1.47c-.14-.43-.55-.65-1.22-.65a3.53,3.53,0,0,0-2.14.88,13.41,13.41,0,0,0-2.36,2.5,28.43,28.43,0,0,0-2.39,3.86,54.09,54.09,0,0,0-2.25,5q-1.06,2.72-2,5.77Z"/><path d="M212.59,189.73a3.75,3.75,0,0,0,2.37-1.24,17.75,17.75,0,0,0,2.69-3.36,33,33,0,0,0,2.52-4.83,34.06,34.06,0,0,0,1.83-5.61l-.63,4.54a40.21,40.21,0,0,1-3.26,6.92,12.54,12.54,0,0,1-3.27,3.76,6,6,0,0,1-3.47,1.16,4.26,4.26,0,0,1-2.29-.61,4.05,4.05,0,0,1-1.53-1.83,7.71,7.71,0,0,1-.54-3.11,15.93,15.93,0,0,1,.65-4.34,21.69,21.69,0,0,1,1.87-4.6,20.83,20.83,0,0,1,2.91-4.14,14.74,14.74,0,0,1,3.76-3,8.9,8.9,0,0,1,4.37-1.13,2.69,2.69,0,0,1,1.81.73,3,3,0,0,1,.92,2.2l-.33.84a3.61,3.61,0,0,0-.84-2.16,2.16,2.16,0,0,0-1.52-.65,5.19,5.19,0,0,0-3.08,1.09,11.49,11.49,0,0,0-2.71,2.9,23.09,23.09,0,0,0-2.14,4,25.28,25.28,0,0,0-1.43,4.5,19.78,19.78,0,0,0-.51,4.3,6.24,6.24,0,0,0,.47,2.75A1.48,1.48,0,0,0,212.59,189.73Zm9.41-2.82a4.85,4.85,0,0,0-.23,1.79c0,.54.37.82,1,.82a2,2,0,0,0,1.55-1,12.29,12.29,0,0,0,1.51-3.34l.51-1.55h.79l-1,3.06a7,7,0,0,1-1.35,2.63,4.79,4.79,0,0,1-1.76,1.32,4.7,4.7,0,0,1-1.76.38,2.31,2.31,0,0,1-2.65-2.39,7.34,7.34,0,0,1,.1-1.56,18,18,0,0,1,.45-1.93l6-22.72a2.44,2.44,0,0,0-.12-2.1c-.34-.45-1.19-.68-2.56-.68l.25-.88a18,18,0,0,0,4.07-.48,16.08,16.08,0,0,0,3.36-1.24Z"/><path d="M235.9,172.46c.59-1.73.39-2.6-.59-2.6a2.14,2.14,0,0,0-1.72,1,15.3,15.3,0,0,0-1.59,3.23l-.59,1.56h-.8l1.09-3.07a7.67,7.67,0,0,1,1.51-2.69,5,5,0,0,1,1.87-1.28,5.36,5.36,0,0,1,1.83-.35,3,3,0,0,1,2,.54,2.24,2.24,0,0,1,.76,1.43,6,6,0,0,1-.08,1.91,18.38,18.38,0,0,1-.55,2l-4.49,12.72a3.68,3.68,0,0,0-.28,1.91.85.85,0,0,0,.95.7,2.09,2.09,0,0,0,1.59-.93,12.43,12.43,0,0,0,1.68-3.36l.59-1.55h.8l-1.09,3.06a8.06,8.06,0,0,1-1.43,2.59,4.92,4.92,0,0,1-3.74,1.74,2.45,2.45,0,0,1-2.9-3,13.47,13.47,0,0,1,.72-2.86Zm1.3-11.21a3.27,3.27,0,0,1,1.12-1.89,2.9,2.9,0,0,1,2-.8,2,2,0,0,1,1.7.8,2.25,2.25,0,0,1,.4,1.89,3.31,3.31,0,0,1-1.11,1.89,3,3,0,0,1-2,.8,2,2,0,0,1-1.66-.8A2.29,2.29,0,0,1,237.2,161.25Z"/><path d="M247.07,190.48h-3.65l5-18a7.52,7.52,0,0,0,.27-1.11,2,2,0,0,0-.06-1c-.11-.29-.39-.44-.84-.44a2.07,2.07,0,0,0-1.64.9,12.6,12.6,0,0,0-1.59,3.38l-.55,1.56h-.8l1.05-3.07a6.44,6.44,0,0,1,2.29-3.48,5.13,5.13,0,0,1,2.71-.84,2.6,2.6,0,0,1,1.83.54,2.17,2.17,0,0,1,.63,1.41,7.42,7.42,0,0,1-.13,1.89c-.13.68-.27,1.36-.44,2Zm1.94-8.74a56.71,56.71,0,0,1,2.85-6.34,23.8,23.8,0,0,1,2.73-4.13,8.87,8.87,0,0,1,2.75-2.27,6.56,6.56,0,0,1,2.92-.69,3.26,3.26,0,0,1,2.71.94,3.42,3.42,0,0,1,.65,2.39,11.61,11.61,0,0,1-.59,3L259,186.91a5,5,0,0,0-.32,1.87c.05.49.38.74,1,.74a2.18,2.18,0,0,0,1.58-.89,11,11,0,0,0,1.65-3.4l.55-1.55h.8l-1,3.06a7.26,7.26,0,0,1-1.45,2.69,4.8,4.8,0,0,1-1.81,1.28,5.12,5.12,0,0,1-1.82.36,3.5,3.5,0,0,1-1.66-.34,2.31,2.31,0,0,1-1-.88,2.93,2.93,0,0,1-.29-2,14.05,14.05,0,0,1,.67-2.69l4-12a9,9,0,0,0,.36-1.41,3.1,3.1,0,0,0-.07-1.47c-.14-.43-.54-.65-1.22-.65a3.55,3.55,0,0,0-2.14.88,13.4,13.4,0,0,0-2.35,2.5,28.43,28.43,0,0,0-2.39,3.86,49.19,49.19,0,0,0-2.25,5c-.71,1.81-1.37,3.73-2,5.77Z"/><path d="M275.38,181l1.05,0-2.79,1.54a17.4,17.4,0,0,0-2.08,1.28c-.53.39-.8.77-.8,1.13s.2.54.59.78a7.17,7.17,0,0,0,1.93.69l3.07.8a16.25,16.25,0,0,1,2.41.78,4.65,4.65,0,0,1,1.7,1.11,2.48,2.48,0,0,1,.63,1.76,5.29,5.29,0,0,1-.69,2.38,8.78,8.78,0,0,1-2.14,2.54,11.8,11.8,0,0,1-3.76,2,17.25,17.25,0,0,1-5.59.8,14.23,14.23,0,0,1-3.67-.4,5,5,0,0,1-2.23-1.11,2.22,2.22,0,0,1-.73-1.64,3.09,3.09,0,0,1,.37-1.41,5.5,5.5,0,0,1,1.12-1.42,8.61,8.61,0,0,1,1.85-1.31,12,12,0,0,1,2.62-1l.29.62a5.15,5.15,0,0,0-2.14,1.81,4,4,0,0,0-.59,2,2.63,2.63,0,0,0,1.18,2.41,5.36,5.36,0,0,0,2.9.74,10,10,0,0,0,2.85-.44,12.86,12.86,0,0,0,2.73-1.18,7,7,0,0,0,2-1.7,3.28,3.28,0,0,0,.76-2,.87.87,0,0,0-.4-.84,6,6,0,0,0-1.33-.42l-6.42-1.63a3.55,3.55,0,0,1-1.64-.87,2.19,2.19,0,0,1-.63-1.66,3.15,3.15,0,0,1,.59-1.72,7.87,7.87,0,0,1,2.22-1.95A39.43,39.43,0,0,1,275.38,181Zm2.31-12.72a6.68,6.68,0,0,1,4,1.11,4.14,4.14,0,0,1,1.53,3.59,7.91,7.91,0,0,1-1.13,4,9.18,9.18,0,0,1-3.19,3.25,9,9,0,0,1-4.87,1.28,6.59,6.59,0,0,1-3.89-1.11,3.93,3.93,0,0,1-1.57-3.46,8.76,8.76,0,0,1,.48-2.63,9.42,9.42,0,0,1,1.53-2.85,8.16,8.16,0,0,1,2.8-2.27A9.28,9.28,0,0,1,277.69,168.31Zm-.17.75a3.42,3.42,0,0,0-2.27.78,6.35,6.35,0,0,0-1.53,2,11.72,11.72,0,0,0-.92,2.5,19.6,19.6,0,0,0-.44,2.37,13.85,13.85,0,0,0-.13,1.58,2.57,2.57,0,0,0,.61,1.93,2.22,2.22,0,0,0,1.62.59,3.52,3.52,0,0,0,2.58-1,6.47,6.47,0,0,0,1.53-2.39,12.43,12.43,0,0,0,.74-2.86,20,20,0,0,0,.19-2.39,5.67,5.67,0,0,0-.38-2.27A1.57,1.57,0,0,0,277.52,169.06Zm3.15,1.43-.75-.3a6,6,0,0,1,2-2.51,4.85,4.85,0,0,1,3-1.1,2.57,2.57,0,0,1,1.77.61,2.47,2.47,0,0,1,.67,1.91,2.24,2.24,0,0,1-.59,1.72,1.8,1.8,0,0,1-1.26.55,2.18,2.18,0,0,1-1.28-.44,1.94,1.94,0,0,1-.73-1.41,4.73,4.73,0,0,1,.54-2.47l.55.12a7.48,7.48,0,0,0-2.52,1.41A7.66,7.66,0,0,0,280.67,170.49Z"/></svg>