<svg id="Capa_1" data-name="Capa 1" xmlns="http://www.w3.org/2000/svg" viewBox="0 0 441.85 276.13"><defs><style>.cls-1{fill:#faf4b1;}.cls-2{fill:#78a2d2;}</style></defs><path class="cls-1" d="M16.66,34.49l138.59,0,219.26,0h50.68c22.2,0,22.23-34.49,0-34.49L286.6,0,67.34,0H16.66c-22.19,0-22.23,34.49,0,34.49Z"/><path class="cls-2" d="M221.45,276.12c-99.24-.39-195.39-1-201.72-1.32-9.8-.47-15.49-6.43-16-16.79-.52-10.19.63-169,1-217.45A13.4,13.4,0,0,1,18.05,27.31l196.43-.23,0,11.49L18.06,38.8a1.87,1.87,0,0,0-1.86,1.85c-.75,99.65-1.4,208.93-1,216.78.29,5.66,2.52,5.76,5.09,5.89,6.09.29,103.87.92,201.21,1.3Z"/><path class="cls-2" d="M206.66,276.13l0-11.5c104.13-.37,208.73-1,215.25-1.3,3.88-.17,5.54-1,5.81-5.91.43-7.84-.28-117.15-1.08-216.82a1.87,1.87,0,0,0-1.86-1.85l-210.64-.23,0-11.49,210.63.23A13.4,13.4,0,0,1,438.09,40.5C438.48,89,439.7,247.84,439.15,258c-.33,6-2.94,16.16-16.78,16.78C415.61,275.12,312.79,275.74,206.66,276.13Z"/><path class="cls-2" d="M82.14,23a7.8,7.8,0,1,1,7.5-5.63h0A7.81,7.81,0,0,1,82.14,23Zm0-14.17a6.26,6.26,0,0,0-3.06.79,6.37,6.37,0,1,0,9.18,7.35h0a6.36,6.36,0,0,0-6.12-8.14Z"/><path class="cls-2" d="M61.56,23a7.8,7.8,0,1,1,7.5-5.63h0A7.81,7.81,0,0,1,61.56,23Zm0-14.17a6.26,6.26,0,0,0-3.06.79,6.37,6.37,0,1,0,9.18,7.35h0a6.36,6.36,0,0,0-6.12-8.14Z"/><path class="cls-2" d="M38.1,23a7.81,7.81,0,0,1-7.49-10,7.82,7.82,0,0,1,9.67-5.32,7.82,7.82,0,0,1,5.32,9.67h0A7.81,7.81,0,0,1,38.1,23Zm0-14.17A6.26,6.26,0,0,0,35,9.58a6.37,6.37,0,1,0,9.18,7.35h0A6.36,6.36,0,0,0,38.1,8.79Z"/><path d="M168.93,129.79a20.35,20.35,0,0,1-.94,6.15,20.87,20.87,0,0,1-2.73,5.59,21.21,21.21,0,0,1-4.24,4.53,19.69,19.69,0,0,1-5.49,3.07,18.68,18.68,0,0,1-6.5,1.11c-.42,0-1,0-1.68,0s-1.43,0-2.17-.06-1.42,0-2,0-1.28,0-1.93,0l-1.76,0c-.53,0-1,0-1.34.06l.12-.84a9.07,9.07,0,0,0,2.12-.33,2.27,2.27,0,0,0,1.24-1,8.38,8.38,0,0,0,.84-2.27l5.5-20.83a9,9,0,0,0,.38-2.17,1.12,1.12,0,0,0-.63-1.09,5.71,5.71,0,0,0-2.18-.36l.12-.84,1.43.09c.56,0,1.16,0,1.81,0h1.89c.64,0,1.35,0,2.14-.06l2.29,0,1.91,0c4,0,6.94.8,8.9,2.38A8.35,8.35,0,0,1,168.93,129.79Zm-20.41,19.7a14.94,14.94,0,0,0,5.84-1.1,14.11,14.11,0,0,0,4.58-3.06,18,18,0,0,0,3.29-4.58,23.5,23.5,0,0,0,2-5.67,29.39,29.39,0,0,0,.67-6.34,7.13,7.13,0,0,0-2.1-5.61c-1.4-1.25-3.69-1.87-6.89-1.87a5.53,5.53,0,0,0-2,.3,2.38,2.38,0,0,0-1.22,1.07,8.52,8.52,0,0,0-.84,2.24l-5.5,21a9.66,9.66,0,0,0-.38,2,1.26,1.26,0,0,0,.52,1.2A4,4,0,0,0,148.52,149.49Z"/><path d="M176.45,132.22c.59-1.73.39-2.6-.59-2.6a2.13,2.13,0,0,0-1.72,1,15.24,15.24,0,0,0-1.6,3.23l-.58,1.56h-.8l1.09-3.07a7.52,7.52,0,0,1,1.51-2.69,5,5,0,0,1,1.87-1.28,5.36,5.36,0,0,1,1.83-.35,3,3,0,0,1,2,.54,2.29,2.29,0,0,1,.76,1.43,5.7,5.7,0,0,1-.09,1.91,16.33,16.33,0,0,1-.54,2l-4.5,12.72a3.76,3.76,0,0,0-.27,1.91.85.85,0,0,0,1,.7,2.09,2.09,0,0,0,1.59-.93A12.43,12.43,0,0,0,179,145l.59-1.55h.8l-1.09,3.06a8.06,8.06,0,0,1-1.43,2.59,4.92,4.92,0,0,1-3.74,1.74,2.44,2.44,0,0,1-2.9-3A12.89,12.89,0,0,1,172,145Zm1.3-11.21a3.27,3.27,0,0,1,1.12-1.89,2.9,2.9,0,0,1,1.95-.8,2,2,0,0,1,1.7.8,2.25,2.25,0,0,1,.4,1.89,3.31,3.31,0,0,1-1.11,1.89,3,3,0,0,1-2,.8,2,2,0,0,1-1.66-.8A2.29,2.29,0,0,1,177.75,121Z"/><path d="M185,149.61a3.94,3.94,0,0,0,.73.27,5.07,5.07,0,0,0,1.2.11,4.28,4.28,0,0,0,3-1.11,4.19,4.19,0,0,0,1.2-3.22,7.31,7.31,0,0,0-.48-2.58,13.28,13.28,0,0,0-1.7-3c-.65-.9-1.26-1.81-1.85-2.75a6.14,6.14,0,0,1-.88-3.34,5.5,5.5,0,0,1,.88-3.13,6.22,6.22,0,0,1,2.37-2.08,7.14,7.14,0,0,1,3.26-.75,9.6,9.6,0,0,1,2.39.29,4.09,4.09,0,0,1,2,1.07,3.1,3.1,0,0,1,.78,2.29,2.64,2.64,0,0,1-.19.9,2.22,2.22,0,0,1-.61.91,1.64,1.64,0,0,1-1.13.37,1.66,1.66,0,0,1-1.18-.48,1.71,1.71,0,0,1-.5-1.28,3.44,3.44,0,0,1,.31-1.45,6.3,6.3,0,0,1,.86-1.36,3.84,3.84,0,0,0-2.1-.51,3.54,3.54,0,0,0-2.6,1.05,4,4,0,0,0-1,2.94,4.65,4.65,0,0,0,.29,1.7,7.89,7.89,0,0,0,.87,1.54c.37.53.83,1.2,1.36,2a27,27,0,0,1,1.76,3.07,7,7,0,0,1,.72,3.11,6,6,0,0,1-1,3.42,6.86,6.86,0,0,1-2.62,2.33,7.84,7.84,0,0,1-3.62.84,8.86,8.86,0,0,1-2.73-.42,4.85,4.85,0,0,1-2.12-1.32,3.51,3.51,0,0,1-.82-2.42,2.6,2.6,0,0,1,.36-1.24,1.34,1.34,0,0,1,1.28-.65,1.47,1.47,0,0,1,1.43.82,4,4,0,0,1,.42,1.83,7,7,0,0,1-.1,1.19C185.1,149,185,149.3,185,149.61Z"/><path d="M202,140.71c1.57-.53,3-1.06,4.26-1.58a13.12,13.12,0,0,0,3.05-1.66,9.08,9.08,0,0,0,2.39-2.94,8.1,8.1,0,0,0,.88-3.78,4.12,4.12,0,0,0-.17-1.55.54.54,0,0,0-.5-.34,3.83,3.83,0,0,0-2.27.93,11.8,11.8,0,0,0-2.39,2.54,22.6,22.6,0,0,0-2.16,3.67,23.34,23.34,0,0,0-1.58,4.39A19,19,0,0,0,203,145a4.79,4.79,0,0,0,.8,3.09,2.61,2.61,0,0,0,2.1.95,6.6,6.6,0,0,0,3.19-.93,10.13,10.13,0,0,0,3.28-3.27l.67.33a12.77,12.77,0,0,1-2.1,2.69A11.42,11.42,0,0,1,208,150a7.43,7.43,0,0,1-3.42.82,6.25,6.25,0,0,1-2.94-.67,4.5,4.5,0,0,1-1.93-2,7.07,7.07,0,0,1-.68-3.25,14.28,14.28,0,0,1,.68-4.06,22.41,22.41,0,0,1,1.91-4.49,21.24,21.24,0,0,1,3-4.14,14.54,14.54,0,0,1,3.82-3,9.27,9.27,0,0,1,4.49-1.13,3.53,3.53,0,0,1,2.21.69,2.45,2.45,0,0,1,.9,2.08,5.45,5.45,0,0,1-1,3.13,11,11,0,0,1-2.6,2.64,22,22,0,0,1-3.51,2.12c-1.26.62-2.49,1.15-3.69,1.6s-2.27.81-3.19,1.09Z"/><path d="M221.64,150.24H218l5-18a7.52,7.52,0,0,0,.27-1.11,2,2,0,0,0-.06-1.05c-.11-.29-.39-.44-.84-.44a2.07,2.07,0,0,0-1.64.9,13,13,0,0,0-1.6,3.38l-.54,1.56h-.8l1.05-3.07a6.44,6.44,0,0,1,2.29-3.48,5.13,5.13,0,0,1,2.71-.84,2.55,2.55,0,0,1,1.82.54,2.08,2.08,0,0,1,.63,1.41,7.39,7.39,0,0,1-.12,1.89c-.13.68-.27,1.36-.44,2Zm1.93-8.74a58.46,58.46,0,0,1,2.86-6.34,23.8,23.8,0,0,1,2.73-4.13,8.87,8.87,0,0,1,2.75-2.27,6.56,6.56,0,0,1,2.92-.69,3.26,3.26,0,0,1,2.71.94,3.47,3.47,0,0,1,.65,2.39,12,12,0,0,1-.59,3l-4.07,12.26a5,5,0,0,0-.32,1.87c0,.49.37.74,1,.74a2.15,2.15,0,0,0,1.57-.89,10.77,10.77,0,0,0,1.66-3.4l.55-1.55h.8l-1.05,3.06a7.41,7.41,0,0,1-1.45,2.69,4.88,4.88,0,0,1-1.81,1.28,5.12,5.12,0,0,1-1.82.36,3.5,3.5,0,0,1-1.66-.34,2.31,2.31,0,0,1-1-.88,2.87,2.87,0,0,1-.29-2,14.05,14.05,0,0,1,.67-2.69l4-12a8.05,8.05,0,0,0,.35-1.41,3,3,0,0,0-.06-1.47c-.14-.43-.54-.65-1.22-.65a3.55,3.55,0,0,0-2.14.88,13.4,13.4,0,0,0-2.35,2.5,28.43,28.43,0,0,0-2.39,3.86,49.19,49.19,0,0,0-2.25,5,60,60,0,0,0-1.95,5.77ZM230,118a4.19,4.19,0,0,1,2.08.46,7.16,7.16,0,0,1,1.45,1.07,11.34,11.34,0,0,0,1.28,1.07,2.7,2.7,0,0,0,1.62.46,2.43,2.43,0,0,0,1.49-.57,6,6,0,0,0,1.45-1.86l.75.21a7.08,7.08,0,0,1-2.48,3.31,5.28,5.28,0,0,1-3,1,4.19,4.19,0,0,1-2.08-.46,7.56,7.56,0,0,1-1.45-1.07,10.37,10.37,0,0,0-1.28-1.07,2.69,2.69,0,0,0-1.61-.46,2.51,2.51,0,0,0-1.5.54,5.66,5.66,0,0,0-1.44,1.89l-.76-.21A7,7,0,0,1,227,119,5.41,5.41,0,0,1,230,118Z"/><path d="M241.76,144.24a18.4,18.4,0,0,1,.5-4,22,22,0,0,1,1.51-4.32,19.29,19.29,0,0,1,2.46-3.91,11.71,11.71,0,0,1,3.38-2.83,8.64,8.64,0,0,1,4.29-1.07,5.57,5.57,0,0,1,4.18,1.61,6.9,6.9,0,0,1,1.57,5,18.31,18.31,0,0,1-.5,4,21.28,21.28,0,0,1-1.52,4.33,18.49,18.49,0,0,1-2.45,3.9,11.88,11.88,0,0,1-3.38,2.84,8.75,8.75,0,0,1-4.29,1.07,5.55,5.55,0,0,1-4.18-1.64A6.89,6.89,0,0,1,241.76,144.24Zm11.88-15.33a3.9,3.9,0,0,0-2.58,1.07,11,11,0,0,0-2.27,2.89A25.42,25.42,0,0,0,247,137a30.24,30.24,0,0,0-1.2,4.7,27.55,27.55,0,0,0-.42,4.67,4.94,4.94,0,0,0,.61,2.77,2,2,0,0,0,1.78.88,4,4,0,0,0,2.59-1.07,11.29,11.29,0,0,0,2.29-2.9,22,22,0,0,0,1.8-4.1,31.42,31.42,0,0,0,1.18-4.68,27.3,27.3,0,0,0,.42-4.68,5.08,5.08,0,0,0-.59-2.79A2,2,0,0,0,253.64,128.91Z"/><path d="M206.59,189.37v-2.6h-.13a9.3,9.3,0,0,1-3.11,3.38,8.43,8.43,0,0,1-4.62,1.24,10.11,10.11,0,0,1-5.29-1.39,9.54,9.54,0,0,1-3.61-3.86,12.2,12.2,0,0,1-1.3-5.76,12.38,12.38,0,0,1,1.34-5.9,10.06,10.06,0,0,1,3.67-4,9.85,9.85,0,0,1,5.23-1.43,9.09,9.09,0,0,1,4.69,1.16,7.57,7.57,0,0,1,3,3.34h.13v-4h3.65v19.57q0,5.25-2.63,8t-7.45,2.73a25.56,25.56,0,0,1-3-.17,10.23,10.23,0,0,1-2.45-.59L195,196a10.38,10.38,0,0,0,2.12.47,22.78,22.78,0,0,0,2.42.12,9.35,9.35,0,0,0,3.76-.69,5,5,0,0,0,2.43-2.29A8.77,8.77,0,0,0,206.59,189.37ZM199.32,173a6.53,6.53,0,0,0-3.51,1,7,7,0,0,0-2.5,2.64,8,8,0,0,0-.92,3.87,8.76,8.76,0,0,0,.9,4,6.53,6.53,0,0,0,6,3.7,7,7,0,0,0,3.67-1,6.84,6.84,0,0,0,2.57-2.73,8.41,8.41,0,0,0,.94-4,7.76,7.76,0,0,0-.94-3.87,7,7,0,0,0-6.24-3.61Z"/><path d="M217.21,191.3V169.55h3.61v3.65H221a6.46,6.46,0,0,1,2.77-3,9.48,9.48,0,0,1,4.71-1.07l-.17,4.29q-4,0-5.67,1.87a8.1,8.1,0,0,0-1.68,5.52V191.3Z"/><path d="M245,176.6a3.22,3.22,0,0,0-1.19-2.56,6.19,6.19,0,0,0-4-1,14.54,14.54,0,0,0-3.8.48,17.11,17.11,0,0,0-3,1.12l-.34-3.78a13.7,13.7,0,0,1,3.39-1.28,17.4,17.4,0,0,1,4.17-.49,11.1,11.1,0,0,1,5.07,1,6.14,6.14,0,0,1,2.77,2.75,9.45,9.45,0,0,1,.86,4.16V191.3h-3.74v-3.4a11.62,11.62,0,0,1-2.86,2.73,7.79,7.79,0,0,1-4.45,1.13,7.43,7.43,0,0,1-4.7-1.47,5,5,0,0,1-1.89-4.24,6.62,6.62,0,0,1,.52-2.75,4.69,4.69,0,0,1,1.6-1.91,9.9,9.9,0,0,1,2.65-1.26,23.93,23.93,0,0,1,3.71-.84,26.27,26.27,0,0,0,2.65-.55,9.8,9.8,0,0,0,1.85-.67,1.28,1.28,0,0,0,.63-.57A2.6,2.6,0,0,0,245,176.6Zm.17,3.66a11.08,11.08,0,0,1-2.08.82,29,29,0,0,1-3,.69,10.83,10.83,0,0,0-3.76,1.28,2.92,2.92,0,0,0-1.28,2.67,2.79,2.79,0,0,0,1.22,2.49,5,5,0,0,0,2.9.82,6.41,6.41,0,0,0,2.71-.56,6.08,6.08,0,0,0,2-1.51,7,7,0,0,0,1.24-2Zm-3.36-12.94h-2.39l3.52-7.77h5Z"/><path d="M260.39,191.3h-3.7V173.24H253v-3.69h3.7v-4a7.62,7.62,0,0,1,.82-3.69,5.51,5.51,0,0,1,2.35-2.31,7.69,7.69,0,0,1,3.59-.8,10.32,10.32,0,0,1,1.75.13,7.53,7.53,0,0,1,1.36.33,5.19,5.19,0,0,0-.34,1.72,4,4,0,0,0,.26,1.47c-.37-.08-.73-.14-1.1-.19a12,12,0,0,0-1.3-.06,3.53,3.53,0,0,0-2.85,1,4,4,0,0,0-.84,2.65v3.78H272.9V191.3h-3.69V173.24h-8.82Zm10.66-25.41a2.59,2.59,0,0,1-1.89-.71,2.77,2.77,0,0,1,0-3.7,2.84,2.84,0,0,1,3.76,0,2.68,2.68,0,0,1,0,3.7A2.59,2.59,0,0,1,271.05,165.89Z"/><path d="M295.33,187.14l.29,3.32a12.57,12.57,0,0,1-2.66.95,14.06,14.06,0,0,1-3.17.35,12.48,12.48,0,0,1-6.05-1.4,10.19,10.19,0,0,1-4.08-4,13.24,13.24,0,0,1-.12-11.89,9.81,9.81,0,0,1,3.88-4,12.14,12.14,0,0,1,6.07-1.45,14.18,14.18,0,0,1,3.36.36,12.33,12.33,0,0,1,2.65.95l-.34,3.78a9.22,9.22,0,0,0-2.39-.84,13.55,13.55,0,0,0-2.94-.3,8.34,8.34,0,0,0-4.14,1,6.85,6.85,0,0,0-2.69,2.62,7.65,7.65,0,0,0-.94,3.85,8.38,8.38,0,0,0,1,4.13,6.67,6.67,0,0,0,2.79,2.75,8.61,8.61,0,0,0,4.16,1,12.61,12.61,0,0,0,2.81-.32A11.15,11.15,0,0,0,295.33,187.14Z"/><path d="M298.73,180.42a12.15,12.15,0,0,1,1.39-5.94,10,10,0,0,1,3.86-4,12.14,12.14,0,0,1,11.47,0,10.23,10.23,0,0,1,3.86,4,13,13,0,0,1,0,11.7,10.36,10.36,0,0,1-3.86,4.07,11.78,11.78,0,0,1-11.47,0,10.37,10.37,0,0,1-3.86-4.05A11.93,11.93,0,0,1,298.73,180.42Zm11,7.9a7.1,7.1,0,0,0,3.8-1,6.6,6.6,0,0,0,2.5-2.73,8.82,8.82,0,0,0,.89-4,7.9,7.9,0,0,0-1-3.93A7.33,7.33,0,0,0,306,174a6.56,6.56,0,0,0-2.5,2.64,8.31,8.31,0,0,0-.9,3.93,8.85,8.85,0,0,0,.88,4,6.62,6.62,0,0,0,2.48,2.75A6.93,6.93,0,0,0,309.69,188.32Z"/></svg>