<svg id="Capa_1" data-name="Capa 1" xmlns="http://www.w3.org/2000/svg" viewBox="0 0 335.95 281.18"><defs><style>.cls-1{fill:#78a2d2;}.cls-2{fill:#66103e;}</style></defs><path class="cls-1" d="M321.1,226.39H321L14.78,224.81C6.48,224.77,0,216.64,0,206.3L.27,46.59A21.69,21.69,0,0,1,3.7,34.68a13.9,13.9,0,0,1,11.44-6.52l306,.57c8.31,0,14.82,8.12,14.82,18.47V207.92c0,5.72-2,11-5.49,14.45A13.24,13.24,0,0,1,321.1,226.39ZM15.84,209.76l304.28,1.57a7,7,0,0,0,.77-3.41V47.2a7,7,0,0,0-.78-3.42l-304-.57a7.2,7.2,0,0,0-.78,3.4h0l-.27,159.71A7,7,0,0,0,15.84,209.76Z"/><path class="cls-2" d="M314.33,213.14h0L22,211.7c-5.59,0-10-5.74-10-13l.25-145.14c0-7.25,4.41-12.93,10-12.93h0l292,.52c5.6,0,10,5.7,10,13V200.18a14.51,14.51,0,0,1-3.88,10.29A8.71,8.71,0,0,1,314.33,213.14ZM15.33,53.57h3l-.26,145.14c0,4,2.09,6.95,4,6.95l292.28,1.44a2.71,2.71,0,0,0,1.88-.91,8.71,8.71,0,0,0,2.1-6V54.11c0-4-2.09-6.93-4-6.93l-292-.52h0c-1.87,0-4,3-4,6.92Z"/><path class="cls-2" d="M168,200.75a73.91,73.91,0,1,1,73.91-73.91A74,74,0,0,1,168,200.75ZM168,68a58.86,58.86,0,1,0,58.86,58.85A58.92,58.92,0,0,0,168,68Z"/><circle class="cls-1" cx="168.47" cy="126.3" r="32.07"/><path class="cls-2" d="M168.47,162.89a36.59,36.59,0,1,1,36.59-36.59A36.62,36.62,0,0,1,168.47,162.89Zm0-64.14A27.55,27.55,0,1,0,196,126.3,27.58,27.58,0,0,0,168.47,98.75Z"/><path class="cls-1" d="M46.93,32.15l-15-.11L32,15.84A16.1,16.1,0,0,1,47.39,0h.25L76.41.35h.11C85.37.35,92.73,7.21,93,15.74L93.15,29l-15.05.19-.17-13.16a1.54,1.54,0,0,0-1.41-.65H76.3L48,15.06c-.78.1-1,.59-1,.85Z"/><path d="M64.82,264.25A11.43,11.43,0,0,0,63,267.74a1.62,1.62,0,0,0,.48,1.87,4.6,4.6,0,0,0,2.52.61l-.21.84c-.79-.06-1.6-.09-2.44-.11l-2.35,0-1.76,0c-.48,0-.94.05-1.39.11l.21-.84a3.87,3.87,0,0,0,1.22-.53,8,8,0,0,0,1.38-1.15,13.79,13.79,0,0,0,1.6-2l18.1-25.45H81l1.68,26.42a3.08,3.08,0,0,0,.78,2.08,2.19,2.19,0,0,0,1.28.61l-.17.84c-.56-.06-1.26-.09-2.1-.11l-2.48,0-2.85,0c-.9,0-1.63.05-2.19.11l.17-.84a5.11,5.11,0,0,0,2.86-.74q.84-.64.75-2.79l-1.13-20.75.29-.08ZM68.18,259H80.45l-.34.84H67.43Z"/><path d="M104.56,256.53q-1.52,4.2-2.9,7.09a26.42,26.42,0,0,1-2.75,4.67,9.83,9.83,0,0,1-2.77,2.56,5.89,5.89,0,0,1-2.92.8,3.67,3.67,0,0,1-2.69-.84,3.07,3.07,0,0,1-.84-2.27,10.43,10.43,0,0,1,.59-3.24L94.35,253a4.07,4.07,0,0,0,.29-1.93c-.08-.45-.4-.67-1-.67a2.17,2.17,0,0,0-1.58.88,11.11,11.11,0,0,0-1.66,3.4l-.54,1.55h-.8l1.05-3.06a7.83,7.83,0,0,1,1.49-2.69,4.91,4.91,0,0,1,1.81-1.28,5,5,0,0,1,1.78-.36,2.88,2.88,0,0,1,2.46.86,3.15,3.15,0,0,1,.46,2.21,13,13,0,0,1-.65,2.81l-4,12c-.78,2.36-.48,3.53.92,3.53a3.53,3.53,0,0,0,2.15-.9,12.47,12.47,0,0,0,2.31-2.6,32.36,32.36,0,0,0,2.33-4.08,55.21,55.21,0,0,0,2.22-5.29q1.08-2.93,2-6.28Zm-.13,11a6.54,6.54,0,0,0-.27,1.87c0,.49.3.73.86.73a2.21,2.21,0,0,0,1.7-1,11.81,11.81,0,0,0,1.57-3.3l.55-1.56h.8l-1,3.07a7.35,7.35,0,0,1-1.45,2.69,5,5,0,0,1-1.81,1.28,5.12,5.12,0,0,1-1.82.36,2.72,2.72,0,0,1-1.26-.3,1.91,1.91,0,0,1-.89-.84,3.47,3.47,0,0,1-.23-1.8,20.93,20.93,0,0,1,.57-2.94l4.12-16.3c.7,0,1.38-.08,2-.17a7.71,7.71,0,0,0,1.79-.42Z"/><path d="M117.79,270.3a3.7,3.7,0,0,0,2.37-1.24,17.51,17.51,0,0,0,2.69-3.36,32,32,0,0,0,2.52-4.83,32.71,32.71,0,0,0,1.82-5.6l-.63,4.53a40.05,40.05,0,0,1-3.25,6.93,12.55,12.55,0,0,1-3.28,3.76,6,6,0,0,1-3.46,1.16,4.33,4.33,0,0,1-2.29-.61,4,4,0,0,1-1.53-1.83,7.53,7.53,0,0,1-.55-3.11,16.33,16.33,0,0,1,.65-4.34,22.23,22.23,0,0,1,1.87-4.6,20.2,20.2,0,0,1,2.92-4.14,14.36,14.36,0,0,1,3.76-3,8.88,8.88,0,0,1,4.37-1.14,2.7,2.7,0,0,1,1.8.74,3,3,0,0,1,.93,2.2l-.34.84a3.44,3.44,0,0,0-.84-2.16,2.13,2.13,0,0,0-1.51-.65,5.13,5.13,0,0,0-3.09,1.09,11.5,11.5,0,0,0-2.71,2.9,23.41,23.41,0,0,0-2.14,4,26.3,26.3,0,0,0-1.43,4.49,20.47,20.47,0,0,0-.5,4.31,6.26,6.26,0,0,0,.46,2.75A1.48,1.48,0,0,0,117.79,270.3Zm9.4-2.81a5,5,0,0,0-.23,1.78c0,.55.37.82,1,.82a2,2,0,0,0,1.55-.94,12.71,12.71,0,0,0,1.52-3.34l.5-1.56h.8l-1,3.07A6.83,6.83,0,0,1,130,270a4.93,4.93,0,0,1-1.77,1.32,4.66,4.66,0,0,1-1.76.38,2.31,2.31,0,0,1-2.65-2.4,7.31,7.31,0,0,1,.11-1.55,17.85,17.85,0,0,1,.44-1.93L130.43,243a2.44,2.44,0,0,0-.13-2.1c-.33-.44-1.19-.67-2.56-.67l.25-.88a18.72,18.72,0,0,0,4.08-.48,17.12,17.12,0,0,0,3.36-1.24Z"/><path d="M141.1,253c.58-1.74.39-2.6-.59-2.6a2.12,2.12,0,0,0-1.72,1.05,14.54,14.54,0,0,0-1.6,3.23l-.59,1.55h-.8l1.1-3.06a7.52,7.52,0,0,1,1.51-2.69,5,5,0,0,1,1.87-1.28,5.29,5.29,0,0,1,1.82-.36,3,3,0,0,1,2,.55,2.21,2.21,0,0,1,.75,1.43,5.44,5.44,0,0,1-.08,1.91,14.61,14.61,0,0,1-.55,2l-4.49,12.73a3.76,3.76,0,0,0-.27,1.91.83.83,0,0,0,.94.69,2.13,2.13,0,0,0,1.6-.92,13.41,13.41,0,0,0,1.68-3.36l.59-1.56H145L144,267.32a7.82,7.82,0,0,1-1.43,2.58,5.07,5.07,0,0,1-1.8,1.35,5.17,5.17,0,0,1-1.93.4,2.9,2.9,0,0,1-2.44-.84,2.93,2.93,0,0,1-.46-2.19,13.33,13.33,0,0,1,.71-2.85Zm1.3-11.21a3.31,3.31,0,0,1,1.11-1.89,2.9,2.9,0,0,1,2-.8,2,2,0,0,1,1.7.8,2.25,2.25,0,0,1,.4,1.89,3.37,3.37,0,0,1-1.11,1.89,2.94,2.94,0,0,1-2,.79,2,2,0,0,1-1.66-.79A2.27,2.27,0,0,1,142.4,241.83Z"/><path d="M148,265.05a17.85,17.85,0,0,1,.51-4,22.09,22.09,0,0,1,1.51-4.33,18.38,18.38,0,0,1,2.46-3.9,11.61,11.61,0,0,1,3.38-2.84,8.71,8.71,0,0,1,4.28-1.07,5.56,5.56,0,0,1,4.18,1.62,6.91,6.91,0,0,1,1.58,5,17.85,17.85,0,0,1-.51,4,21.16,21.16,0,0,1-1.51,4.32,18.45,18.45,0,0,1-2.46,3.91,11.43,11.43,0,0,1-3.38,2.83,8.61,8.61,0,0,1-4.28,1.08A5.54,5.54,0,0,1,149.6,270,6.92,6.92,0,0,1,148,265.05Zm11.89-15.33a3.91,3.91,0,0,0-2.58,1.07,10.84,10.84,0,0,0-2.27,2.9,24.22,24.22,0,0,0-1.81,4.1,31.39,31.39,0,0,0-1.19,4.7,27.43,27.43,0,0,0-.42,4.66,4.9,4.9,0,0,0,.61,2.77,2,2,0,0,0,1.78.89,3.91,3.91,0,0,0,2.58-1.07,11.08,11.08,0,0,0,2.29-2.9,22.35,22.35,0,0,0,1.81-4.1,32.7,32.7,0,0,0,1.18-4.68,28.35,28.35,0,0,0,.42-4.68,5.14,5.14,0,0,0-.59-2.8A2.06,2.06,0,0,0,159.91,249.72Z"/><path d="M187.55,255.14a7.29,7.29,0,0,1-2.19-1.72,3.69,3.69,0,0,1-.88-2.82,1.72,1.72,0,0,1,.69-1.36,2.11,2.11,0,0,1,1.16-.4,2,2,0,0,1,2,1.66,10.18,10.18,0,0,1,.26,4.26,31.37,31.37,0,0,1-1,4.92,25.64,25.64,0,0,1-1.83,4.57,17.24,17.24,0,0,1-2.67,3.83,11.65,11.65,0,0,1-3.48,2.62,9.65,9.65,0,0,1-4.29.95,5,5,0,0,1-3-.78,4.11,4.11,0,0,1-1.49-2,6.06,6.06,0,0,1-.33-2.46,14.12,14.12,0,0,1,1.45-5.06,30.43,30.43,0,0,1,3.4-5.5,42.17,42.17,0,0,1,4.89-5.4,10.24,10.24,0,0,0-1.43.69l-1.47.88a12.85,12.85,0,0,1-1.38.76,3,3,0,0,1-1.26.31,1.94,1.94,0,0,1-1.37-.52,1.84,1.84,0,0,0-1.28-.53,1.34,1.34,0,0,0-1.11.57,7.55,7.55,0,0,0-.95,2l-.46,1.55h-.8l.93-3.06a6.83,6.83,0,0,1,1.78-3.41,3.46,3.46,0,0,1,2.16-.88,2.15,2.15,0,0,1,1.35.42c.36.28.73.56,1.11.82a2.29,2.29,0,0,0,1.37.4,5.75,5.75,0,0,0,1.91-.31,4.56,4.56,0,0,0,1.61-1l.42-.8.89.42a45.31,45.31,0,0,0-3,4.12,31.86,31.86,0,0,0-2.26,4.15,26.54,26.54,0,0,0-2.29,8.61,7.17,7.17,0,0,0,.35,3.49,1.61,1.61,0,0,0,1.45,1.05,6.77,6.77,0,0,0,3.66-1.05,11.35,11.35,0,0,0,3-2.77,20,20,0,0,0,2.27-3.76,24.44,24.44,0,0,0,1.47-4A17.93,17.93,0,0,0,187.55,255.14Z"/><path d="M196.66,253c.59-1.74.39-2.6-.59-2.6a2.13,2.13,0,0,0-1.72,1.05,15,15,0,0,0-1.6,3.23l-.58,1.55h-.8l1.09-3.06a7.52,7.52,0,0,1,1.51-2.69,5,5,0,0,1,1.87-1.28,5.39,5.39,0,0,1,1.83-.36,3,3,0,0,1,2,.55,2.26,2.26,0,0,1,.76,1.43,5.71,5.71,0,0,1-.09,1.91,16.18,16.18,0,0,1-.54,2l-4.5,12.73a3.76,3.76,0,0,0-.27,1.91.85.85,0,0,0,.95.69,2.1,2.1,0,0,0,1.59-.92,12.76,12.76,0,0,0,1.68-3.36l.59-1.56h.8l-1.09,3.07a8,8,0,0,1-1.43,2.58,5,5,0,0,1-1.81,1.35,5.13,5.13,0,0,1-1.93.4,2.44,2.44,0,0,1-2.9-3,12.81,12.81,0,0,1,.72-2.85Zm1.3-11.21a3.27,3.27,0,0,1,1.12-1.89,2.9,2.9,0,0,1,1.95-.8,2,2,0,0,1,1.7.8,2.29,2.29,0,0,1,.4,1.89,3.37,3.37,0,0,1-1.11,1.89,3,3,0,0,1-2,.79,2,2,0,0,1-1.66-.79A2.3,2.3,0,0,1,198,241.83Z"/><path d="M205.19,270.43a3.69,3.69,0,0,0,.73.27,5.07,5.07,0,0,0,1.2.11,4.24,4.24,0,0,0,3-1.12,4.16,4.16,0,0,0,1.2-3.21,7.27,7.27,0,0,0-.48-2.58,13.46,13.46,0,0,0-1.7-3c-.65-.9-1.26-1.82-1.85-2.75a6.17,6.17,0,0,1-.88-3.34,5.48,5.48,0,0,1,.88-3.13,6.13,6.13,0,0,1,2.37-2.08,7,7,0,0,1,3.26-.76,9.6,9.6,0,0,1,2.39.3,4.06,4.06,0,0,1,2,1.07,3.1,3.1,0,0,1,.78,2.29,2.64,2.64,0,0,1-.19.9,2.13,2.13,0,0,1-.61.9,1.64,1.64,0,0,1-1.13.38,1.66,1.66,0,0,1-1.18-.48,1.71,1.71,0,0,1-.5-1.28,3.44,3.44,0,0,1,.31-1.45,6.61,6.61,0,0,1,.86-1.37,3.93,3.93,0,0,0-2.1-.5,3.54,3.54,0,0,0-2.6,1.05,4,4,0,0,0-1.05,2.94,4.69,4.69,0,0,0,.29,1.7,8,8,0,0,0,.86,1.53c.38.53.84,1.21,1.37,2a26,26,0,0,1,1.76,3.06,7,7,0,0,1,.72,3.11,6.08,6.08,0,0,1-1,3.43,6.86,6.86,0,0,1-2.62,2.33,7.84,7.84,0,0,1-3.62.84,8.86,8.86,0,0,1-2.73-.42,4.78,4.78,0,0,1-2.12-1.33,3.47,3.47,0,0,1-.82-2.41,2.57,2.57,0,0,1,.36-1.24,1.34,1.34,0,0,1,1.28-.65,1.47,1.47,0,0,1,1.43.82,3.9,3.9,0,0,1,.42,1.82,7.09,7.09,0,0,1-.1,1.2C205.3,269.79,205.24,270.12,205.19,270.43Z"/><path d="M235.38,256.53a76.37,76.37,0,0,1-2.89,7.09,26.4,26.4,0,0,1-2.76,4.67,9.7,9.7,0,0,1-2.77,2.56,5.87,5.87,0,0,1-2.92.8,3.66,3.66,0,0,1-2.68-.84,3.07,3.07,0,0,1-.84-2.27,10.69,10.69,0,0,1,.58-3.24L225.18,253a4.07,4.07,0,0,0,.29-1.93c-.08-.45-.4-.67-1-.67a2.15,2.15,0,0,0-1.58.88,11.11,11.11,0,0,0-1.66,3.4l-.54,1.55h-.8l1-3.06a7.66,7.66,0,0,1,1.49-2.69,5,5,0,0,1,1.8-1.28,5,5,0,0,1,1.79-.36,2.88,2.88,0,0,1,2.46.86A3.15,3.15,0,0,1,229,252a13.63,13.63,0,0,1-.65,2.81l-4,12c-.79,2.36-.48,3.53.92,3.53a3.51,3.51,0,0,0,2.14-.9,11.93,11.93,0,0,0,2.31-2.6,31.17,31.17,0,0,0,2.33-4.08,55.14,55.14,0,0,0,2.23-5.29c.71-2,1.37-4,1.95-6.28Zm-.12,11a7,7,0,0,0-.28,1.87c0,.49.31.73.87.73a2.21,2.21,0,0,0,1.7-1,12.1,12.1,0,0,0,1.57-3.3l.55-1.56h.8l-1.05,3.07A7.5,7.5,0,0,1,238,270a5,5,0,0,1-1.81,1.28,5.13,5.13,0,0,1-1.83.36,2.78,2.78,0,0,1-1.26-.3,1.94,1.94,0,0,1-.88-.84,3.47,3.47,0,0,1-.23-1.8,20.93,20.93,0,0,1,.57-2.94l4.11-16.3c.7,0,1.38-.08,2-.17a7.83,7.83,0,0,0,1.79-.42Z"/><path d="M248.07,270.3a3.58,3.58,0,0,0,2.31-1.28,18.08,18.08,0,0,0,2.64-3.46,33.23,33.23,0,0,0,2.48-5,36.25,36.25,0,0,0,1.81-5.75l-.72,4.53a41.86,41.86,0,0,1-3.19,7.16,12.83,12.83,0,0,1-3.23,3.91,5.58,5.58,0,0,1-3.32,1.2,3.36,3.36,0,0,1-3-1.43,6.28,6.28,0,0,1-1-3.66,16.45,16.45,0,0,1,.67-4.38,26,26,0,0,1,1.87-4.73,24.69,24.69,0,0,1,2.75-4.28,14.41,14.41,0,0,1,3.38-3.11,6.85,6.85,0,0,1,3.72-1.18,2.44,2.44,0,0,1,2.25,1.45,6.28,6.28,0,0,1,.31,4l-.46.26a6.85,6.85,0,0,0-.29-3.59,2,2,0,0,0-1.93-1.37,3.53,3.53,0,0,0-2.29,1.07,12.79,12.79,0,0,0-2.31,2.9,26.4,26.4,0,0,0-2,4.09,30.25,30.25,0,0,0-1.43,4.69,21.78,21.78,0,0,0-.52,4.64,5.57,5.57,0,0,0,.4,2.52A1.18,1.18,0,0,0,248.07,270.3Zm10.58-20.83c.67,0,1.35-.08,2-.17a8.5,8.5,0,0,0,1.85-.42l-5.25,18.57-.24,1a2.35,2.35,0,0,0,0,1.12c.1.33.39.5.87.5a2.22,2.22,0,0,0,1.63-.92,10.47,10.47,0,0,0,1.6-3.36l.5-1.56h.8l-1.05,3.07A7.92,7.92,0,0,1,260,269.9a5.06,5.06,0,0,1-1.7,1.35,4.22,4.22,0,0,1-1.72.4,2.5,2.5,0,0,1-2.31-1.1,3.17,3.17,0,0,1-.29-2.24c.17-.86.36-1.72.59-2.59Z"/><path d="M268.77,267.49a4.68,4.68,0,0,0-.21,1.91.82.82,0,0,0,.93.69,2,2,0,0,0,1.57-.94,12.74,12.74,0,0,0,1.58-3.34l.54-1.56h.8l-1.05,3.07a8,8,0,0,1-1.32,2.54,4.53,4.53,0,0,1-3.72,1.79,3.25,3.25,0,0,1-2-.53,2.18,2.18,0,0,1-.79-1.41,5.38,5.38,0,0,1,0-1.91,20.61,20.61,0,0,1,.48-2L272.43,243a2.36,2.36,0,0,0-.09-2.1c-.33-.44-1.19-.67-2.56-.67l.3-.88a18.7,18.7,0,0,0,4.07-.48,17.73,17.73,0,0,0,3.4-1.24Z"/></svg>