<svg id="Capa_1" data-name="Capa 1" xmlns="http://www.w3.org/2000/svg" viewBox="0 0 378.9 258.51"><defs><style>.cls-1,.cls-4{fill:none;}.cls-1,.cls-2{stroke:#78a2d2;}.cls-1,.cls-2,.cls-3,.cls-4,.cls-5,.cls-6,.cls-7,.cls-8,.cls-9{stroke-miterlimit:10;}.cls-1,.cls-4,.cls-7{stroke-width:8px;}.cls-2{fill:#78a2d2;}.cls-3{fill:#accae8;stroke:#accae8;}.cls-3,.cls-6,.cls-9{stroke-width:7px;}.cls-4,.cls-5{stroke:#fac49a;}.cls-5{fill:#fac49a;}.cls-6{fill:#efceb9;stroke:#efceb9;}.cls-7,.cls-8{fill:#faf4b1;stroke:#faf4b1;}.cls-9{fill:#fffde6;stroke:#fffde6;}</style></defs><path class="cls-1" d="M68.51,12.66,65,6.27a3.53,3.53,0,0,0-3.12-1.75H12.67a3.55,3.55,0,0,0-3.1,1.7L5.81,12.86a6.88,6.88,0,0,0-.69,3.34L5,129.67c0,1.71,2.12,3.48,4,3.48l182.87.2a3.31,3.31,0,0,0,3.48-3.11V17.52a3.31,3.31,0,0,0-3.47-3.1l-120.27,0A3.51,3.51,0,0,1,68.51,12.66Z"/><rect class="cls-2" x="6.47" y="15.29" width="186.62" height="11"/><rect class="cls-3" x="8.32" y="24.31" width="183.74" height="107.39" rx="4.46"/><polygon class="cls-2" points="4.86 15.29 67.97 15.05 61.96 4.72 10.25 5.37 4.86 15.29"/><path class="cls-4" d="M156.52,73,153,66.57a3.51,3.51,0,0,0-3.12-1.74H100.68a3.52,3.52,0,0,0-3.1,1.7l-3.76,6.63a7,7,0,0,0-.7,3.34L93,190c0,1.7,2.13,3.47,4,3.48l182.88.19a3.31,3.31,0,0,0,3.48-3.1V77.82a3.31,3.31,0,0,0-3.47-3.1H159.64A3.52,3.52,0,0,1,156.52,73Z"/><rect class="cls-5" x="94.48" y="75.59" width="186.62" height="11"/><rect class="cls-6" x="96.33" y="84.61" width="183.74" height="107.39" rx="4.46"/><polygon class="cls-5" points="92.87 75.59 155.98 75.35 149.97 65.02 98.25 65.68 92.87 75.59"/><path class="cls-7" d="M247.05,132.5l-3.48-6.39a3.52,3.52,0,0,0-3.12-1.75H191.21a3.55,3.55,0,0,0-3.1,1.7l-3.76,6.64a7,7,0,0,0-.7,3.34l-.13,113.47c0,1.71,2.12,3.48,4,3.48l182.88.19a3.29,3.29,0,0,0,3.47-3.1V137.36a3.3,3.3,0,0,0-3.47-3.11H250.17A3.53,3.53,0,0,1,247.05,132.5Z"/><rect class="cls-8" x="185.01" y="135.12" width="186.62" height="11"/><rect class="cls-9" x="186.86" y="144.15" width="183.74" height="107.39" rx="4.46"/><polygon class="cls-8" points="183.4 135.12 246.51 134.88 240.49 124.56 188.78 125.21 183.4 135.12"/></svg>